# xmcd CD database file
#
# Track frame offsets:
#	150
#	12995
#	27408
#	42264
#	57812
#	71456
#	85671
#	96875
#	110797
#	124307
#	138563
#	153301
#	167543
#	182524
#	196374
#	209333
#	223805
#	238734
#
# Disc length: 3384 seconds
#
# Revision: 2
# Processed by: cddbd v1.5.2PL0 Copyright (c) Steve Scherf et al.
# Submitted via: CDex 1.51
#
DISCID=010d3612
DTITLE=Count Basie - Vol.06 - Ride On
DYEAR=1900
DGENRE=Jazz
TTITLE0=Down For Double
TTITLE1=More Than You Know
TTITLE2=Harvard Blues
TTITLE3=Coming-Out Party
TTITLE4=One O'Clock Jump
TTITLE5=Blue Shadows And White Gardenias
TTITLE6='Ay Now
TTITLE7=Basie Blues
TTITLE8=I'm Gonna Move To The Outskirts Of Town
TTITLE9=Rusty Dusty Blues
TTITLE10=Ride On
TTITLE11=Lost The Blackout Blues
TTITLE12=Time On My Hands
TTITLE13=It's Sand, Man !
TTITLE14=Ain't It The Truth
TTITLE15=For The Good Of Your Country
TTITLE16=I Diddn't Know About You
TTITLE17=Taps Miller
EXTD=
EXTT0=
EXTT1=
EXTT2=
EXTT3=
EXTT4=
EXTT5=
EXTT6=
EXTT7=
EXTT8=
EXTT9=
EXTT10=
EXTT11=
EXTT12=
EXTT13=
EXTT14=
EXTT15=
EXTT16=
EXTT17=
PLAYORDER=
